# xmcd
#
# Track frame offsets:
#	150
#	14428
#	24418
#	38077
#	51156
#	71811
#	86976
#	97806
#	107799
#	118761
#	138441
#	160277
#	174133
#	188981
#	204998
#	215960
#
# Disc length: 3004 seconds
#
# Revision: 0
# Processed by: cddbd v1.5.2PL0 Copyright (c) Steve Scherf et al.
# Submitted via: EasyCDDAExtractor 16.0.6.1
#
DISCID=e20bba10
DTITLE=Συλλογικός δίσκος - Τα μεγάλα τραγούδια-Μ. Χατζιδάκις 3
DYEAR=2010
DGENRE=Ποικίλη
TTITLE0=Αλεξάνδρα - Εφτά τραγούδια θα σού πω [Μιχ. Κακογιάννης]
TTITLE1=Μερκούρη Μελίνα - Η προδοσία [Μάνος Χατζιδάκις]
TTITLE2=Μητσιάς Μανώλης - Τσάμικος [Νίκος Γκάτσος]
TTITLE3=Γιαννάτου Σαβίνα - Κάθε τρελλό παιδί [Μάνος Χατζιδάκις]
TTITLE4=Μούτσιος Γιώργος - Αερικό [Νίκος Γκάτσος]
TTITLE5=Φαραντούρη Μαρία - Τώρα νυφούλα μου χρυσή [F.C.Lorca, απ. Ν. Γκάτσος]
TTITLE6=Αλεξάνδρα - Ο μάγκας [Μιχ. Μπουρμπούλης]
TTITLE7=Ρωμανός Γιώργος - Τζώνης ο μπόγιας [Νίκος Γκάτσος]
TTITLE8=Αρλέτα - Το τραγούδι της Ευρυδίκης [Μάνος Χατζιδάκις]
TTITLE9=Γιαννάτου Σαβίνα - Στου Διγενή τα κάστρα [Νίκος Γκάτσος]
TTITLE10=Φαραντούρη Μαρία - Οι χρησμοί της Σίβυλλας [Νίκος Γκάτσος]
TTITLE11=Στόκας Μπάμπης - Αχ, ουρανέ [Νίκος Γκάτσος]
TTITLE12=Μητσιάς Μανώλης - Η μικρή Ραλλού [Νίκος Γκάτσος]
TTITLE13=Γαλάνη Δήμητρα - Η πίκρα σήμερα [Νίκος Γκάτσος]
TTITLE14=Βενετσάνου Νένα - Μαριάνθη των ανέμων [Μάνος Χατζιδάκις]
TTITLE15=Ζαμπέτας Γιώργος - Οδός Ονείρων [Μάνος Χατζιδάκις]
EXTD=
EXTT0=
EXTT1=
EXTT2=
EXTT3=
EXTT4=
EXTT5=
EXTT6=
EXTT7=
EXTT8=
EXTT9=
EXTT10=
EXTT11=
EXTT12=
EXTT13=
EXTT14=
EXTT15=
PLAYORDER=
